<svg xmlns="http://www.w3.org/2000/svg" xmlns:xlink="http://www.w3.org/1999/xlink" version="1.1" x="0px" y="0px" viewBox="0 0 128 128" enable-background="new 0 0 128 128" xml:space="preserve" height="20" width="20"><g><path fill-rule="evenodd" clip-rule="evenodd" d="M102.929,39.517l-1.705-3.961c-8.646,1.482-12.578,3.627-15.248,11.74   c-0.063-0.029-0.127-0.063-0.193-0.088c-5.785-2.529-8.033,3.611-8.033,3.611c5.711-0.6,9.326,2.232,11.738,7.018   c0,0,1.496-5.828-1.58-9.139C91.356,42.876,94.886,40.898,102.929,39.517z"/><path fill-rule="evenodd" clip-rule="evenodd" d="M78.647,52.574C66.751,50.31,61.653,68.715,50.61,78.91   s-23.787,10.48-23.787,10.48s5.098,5.379,21.809,3.396c9.07-1.076,48.371-17.605,39.504-33.711   C86.536,56.175,83.64,53.529,78.647,52.574z M78.794,60.22c-0.51-0.205-1.629-1.016-3.768,0c-2.141,1.016-5.4,5.506-5.4,5.506   C59.847,80.191,43.649,86.1,46.501,84.775c2.854-1.324,10.188-8.047,13.041-11.971c2.852-3.92,8.861-12.377,12.223-15.536   c3.363-3.156,8.65-0.814,8.65-0.814S79.304,60.427,78.794,60.22z"/></g></svg>